# xmcd
#
# Track frame offsets: 
#        150
#        10469
#        34787
#        50868
#        67771
#        86914
#        97264
#        113567
#        127685
#        147053
#        167659
#        177352
#        196908
#        212685
#
# Disc length: 3012 seconds
#
# Revision: 1
# Processed by: cddbd v1.5.2PL0 Copyright (c) Steve Scherf et al.
# Submitted via: ExactAudioCopyFreeDBPlugin 1.0
#
DISCID=bf0bc20e
DTITLE=Lino Muoio - Mandolin Blues
DYEAR=2012
DGENRE=Blues
TTITLE0=Girl from Arkansas
TTITLE1=Bound to see my babe
TTITLE2=Master Cheater Man
TTITLE3=Memphis Blues
TTITLE4=Picture of you
TTITLE5=Swing Thing
TTITLE6=Harmony H35
TTITLE7=That old time Blues
TTITLE8=Louise
TTITLE9=Miss Swmiss
TTITLE10=Take me away
TTITLE11=Sweet little woman
TTITLE12=Homeward Blues
TTITLE13=Slidin' grass
EXTD=The first Italian record dedicated to the Blues Mandolin.\nGuitar
EXTD=ist, mandolinist and songwriter Lino Muoio has been a part of the
EXTD=Italian Blues music scene for over 20 years.  He has played many
EXTD=gigs and festivals with his main band (Blue Stuff) with various 
EXTD=appearances on National television, and participated in many reco
EXTD=rding sessions for a variety of artists in Italy. \nNot many folk
EXTD=s view the mandolin as a Blues instrument, but Lino believes the 
EXTD=Blues and the Mandolin fit perfectly together! After the first so
EXTD=lo album (Blues on Me), he decided to produce a fine piece of wor
EXTD=k dedicated to the Blues Mandolin.\nThe CD has fourteen original 
EXTD=songs (no covers) with English lyrics. There are collaborations w
EXTD=ith many fine musicians from all over the world, some of those ar
EXTD=tists include: Mike Supnick of Swing Maniacs, Sebastiano Forti of
EXTD=Sweetwater Jazz Band, Bobby Ray Green of The Network Band, Lonni
EXTD=e Wilson and the Kompoz Community, Veronica Sbergia, and the Blue
EXTD=Stuff.\nThe worldwide collaboration resulted in a diverse offeri
EXTD=ng of styles, from the vintage country Blues inspiration of Yank 
EXTD=Rachell to the Chicago style of Carl Martin, and a healthy dose o
EXTD=f jazz, swing and bluegrass.  There is something for everyone on 
EXTD=this CD. \n
EXTT0=
EXTT1=
EXTT2=
EXTT3=
EXTT4=
EXTT5=
EXTT6=
EXTT7=
EXTT8=
EXTT9=
EXTT10=
EXTT11=
EXTT12=
EXTT13=
PLAYORDER=
